<svg width="21" height="22" viewBox="0 0 21 22" fill="none" xmlns="http://www.w3.org/2000/svg">
<path fill-rule="evenodd" clip-rule="evenodd" d="M14.7776 4.14816C14.7776 4.79897 14.6277 5.41479 14.3606 5.96296H16.7655C17.5432 5.90535 19.1161 6.30864 19.1852 8.38272L21 19.8766C21 20.4239 20.6371 21.605 19.1852 21.9506H2.41976C1.69959 21.9506 0.207408 21.5358 0 19.8766L1.90124 8.38272C1.95885 7.60494 2.55803 6.03209 4.49383 5.96296H6.89829C6.63117 5.41479 6.48129 4.79897 6.48129 4.14816C6.48129 1.85719 8.33848 0 10.6294 0C12.9204 0 14.7776 1.85719 14.7776 4.14816ZM10.543 5.87658C11.6885 5.87658 12.617 4.94799 12.617 3.8025C12.617 2.65702 11.6885 1.72843 10.543 1.72843C9.39749 1.72843 8.46889 2.65702 8.46889 3.8025C8.46889 4.94799 9.39749 5.87658 10.543 5.87658Z" fill="#C5D751"/>
</svg>
